<?xml version="1.0" encoding="utf-8"?>
<!-- Generator: Adobe Illustrator 16.0.0, SVG Export Plug-In . SVG Version: 6.00 Build 0)  -->
<!DOCTYPE svg PUBLIC "-//W3C//DTD SVG 1.1//EN" "http://www.w3.org/Graphics/SVG/1.1/DTD/svg11.dtd">
<svg version="1.1" id="Layer_1" xmlns="http://www.w3.org/2000/svg" xmlns:xlink="http://www.w3.org/1999/xlink" x="0px" y="0px"
	 width="1400px" height="1400px" viewBox="0 0 1400 1400" enable-background="new 0 0 1400 1400" xml:space="preserve">
<g>
	<rect fill="#4F3049" width="1400" height="1400"/>
	<circle fill="#381D33" cx="996.707" cy="312.207" r="241.933"/>
	<g>
		<g>
			
				<ellipse transform="matrix(0.866 0.5 -0.5 0.866 241.7383 -261.9729)" fill="#FFECBA" cx="609.667" cy="320.057" rx="3.738" ry="3.76"/>
		</g>
		<g>
			
				<ellipse transform="matrix(0.866 0.5 -0.5 0.866 248.8537 -269.0879)" fill="#FFECBA" cx="626.5" cy="329.775" rx="3.738" ry="3.76"/>
		</g>
		<g>
			
				<ellipse transform="matrix(0.8661 0.4999 -0.4999 0.8661 255.8992 -276.1591)" fill="#FFECBA" cx="643.333" cy="339.494" rx="3.738" ry="3.76"/>
		</g>
		<g>
			
				<ellipse transform="matrix(0.866 0.5 -0.5 0.866 263.084 -283.3179)" fill="#FFECBA" cx="660.166" cy="349.212" rx="3.738" ry="3.761"/>
		</g>
		<g>
			
				<ellipse transform="matrix(0.866 0.5 -0.5 0.866 270.1783 -290.4194)" fill="#FFECBA" cx="676.999" cy="358.931" rx="3.738" ry="3.76"/>
		</g>
		<g>
			
				<ellipse transform="matrix(0.866 0.5001 -0.5001 0.866 277.3802 -297.5884)" fill="#FFECBA" cx="693.832" cy="368.649" rx="3.737" ry="3.76"/>
		</g>
		<g>
			
				<ellipse transform="matrix(0.866 0.5 -0.5 0.866 284.4082 -304.6492)" fill="#FFECBA" cx="710.666" cy="378.368" rx="3.738" ry="3.76"/>
		</g>
		<g>
			
				<ellipse transform="matrix(0.8661 0.4999 -0.4999 0.8661 291.4435 -311.714)" fill="#FFECBA" cx="727.498" cy="388.086" rx="3.738" ry="3.76"/>
		</g>
		<g>
			
				<ellipse transform="matrix(0.8661 0.4999 -0.4999 0.8661 298.5566 -318.828)" fill="#FFECBA" cx="744.332" cy="397.805" rx="3.738" ry="3.76"/>
		</g>
		<g>
			
				<ellipse transform="matrix(0.866 0.5 -0.5 0.866 305.7523 -325.9927)" fill="#FFECBA" cx="761.164" cy="407.523" rx="3.738" ry="3.76"/>
		</g>
		<g>
			
				<ellipse transform="matrix(0.866 0.5 -0.5 0.866 312.8673 -333.1078)" fill="#FFECBA" cx="777.998" cy="417.242" rx="3.738" ry="3.76"/>
		</g>
		<g>
			
				<ellipse transform="matrix(0.8661 0.4999 -0.4999 0.8661 319.895 -340.1682)" fill="#FFECBA" cx="794.83" cy="426.96" rx="3.738" ry="3.76"/>
		</g>
		<g>
			
				<ellipse transform="matrix(0.8661 0.4999 -0.4999 0.8661 327.0081 -347.2822)" fill="#FFECBA" cx="811.664" cy="436.679" rx="3.738" ry="3.76"/>
		</g>
		<g>
			
				<ellipse transform="matrix(0.866 0.5 -0.5 0.866 334.2113 -354.4513)" fill="#FFECBA" cx="828.496" cy="446.397" rx="3.738" ry="3.76"/>
		</g>
		<g>
			
				<ellipse transform="matrix(0.866 0.5 -0.5 0.866 341.3264 -361.5664)" fill="#FFECBA" cx="845.33" cy="456.116" rx="3.738" ry="3.76"/>
		</g>
		<g>
			
				<ellipse transform="matrix(0.866 0.5 -0.5 0.866 348.441 -368.6805)" fill="#FFECBA" cx="862.162" cy="465.835" rx="3.738" ry="3.76"/>
		</g>
		<g>
			
				<ellipse transform="matrix(0.866 0.5 -0.5 0.866 355.5561 -375.7957)" fill="#FFECBA" cx="878.996" cy="475.554" rx="3.738" ry="3.76"/>
		</g>
		<g>
			
				<ellipse transform="matrix(0.8661 0.4999 -0.4999 0.8661 362.5724 -382.8495)" fill="#FFECBA" cx="895.828" cy="485.272" rx="3.738" ry="3.76"/>
		</g>
		<g>
			
				<ellipse transform="matrix(0.8661 0.4999 -0.4999 0.8661 369.6855 -389.9635)" fill="#FFECBA" cx="912.662" cy="494.991" rx="3.738" ry="3.76"/>
		</g>
		<g>
			
				<ellipse transform="matrix(0.866 0.5001 -0.5001 0.866 377.0181 -397.2118)" fill="#FFECBA" cx="929.495" cy="504.709" rx="3.737" ry="3.761"/>
		</g>
		<g>
			
				<ellipse transform="matrix(0.866 0.5 -0.5 0.866 384.0151 -404.2543)" fill="#FFECBA" cx="946.328" cy="514.428" rx="3.738" ry="3.76"/>
		</g>
		<g>
			
				<ellipse transform="matrix(0.866 0.5 -0.5 0.866 391.1462 -411.3789)" fill="#FFECBA" cx="963.161" cy="524.146" rx="3.737" ry="3.761"/>
		</g>
		<g>
			
				<ellipse transform="matrix(0.8661 0.4999 -0.4999 0.8661 398.137 -418.4177)" fill="#FFECBA" cx="979.994" cy="533.865" rx="3.738" ry="3.76"/>
		</g>
		<g>
			
				<ellipse transform="matrix(0.866 0.5 -0.5 0.866 405.3593 -425.5978)" fill="#FFECBA" cx="996.826" cy="543.583" rx="3.738" ry="3.76"/>
		</g>
		<g>
			
				<ellipse transform="matrix(0.866 0.5 -0.5 0.866 412.4742 -432.7129)" fill="#FFECBA" cx="1013.66" cy="553.302" rx="3.738" ry="3.76"/>
		</g>
		<g>
			
				<ellipse transform="matrix(0.866 0.5 -0.5 0.866 419.5891 -439.827)" fill="#FFECBA" cx="1030.492" cy="563.021" rx="3.738" ry="3.76"/>
		</g>
		<g>
			
				<ellipse transform="matrix(0.866 0.5 -0.5 0.866 426.704 -446.9421)" fill="#FFECBA" cx="1047.326" cy="572.739" rx="3.738" ry="3.76"/>
		</g>
		<g>
			
				<ellipse transform="matrix(0.8661 0.4999 -0.4999 0.8661 433.7013 -453.985)" fill="#FFECBA" cx="1064.158" cy="582.458" rx="3.738" ry="3.76"/>
		</g>
		<g>
			
				<ellipse transform="matrix(0.8661 0.4999 -0.4999 0.8661 440.8144 -461.099)" fill="#FFECBA" cx="1080.992" cy="592.176" rx="3.738" ry="3.76"/>
		</g>
		<g>
			
				<ellipse transform="matrix(0.866 0.5 -0.5 0.866 448.0481 -468.2856)" fill="#FFECBA" cx="1097.824" cy="601.895" rx="3.738" ry="3.76"/>
		</g>
		<g>
			
				<ellipse transform="matrix(0.8661 0.4999 -0.4999 0.8661 455.0399 -475.3262)" fill="#FFECBA" cx="1114.658" cy="611.613" rx="3.738" ry="3.76"/>
		</g>
		<g>
			
				<ellipse transform="matrix(0.8661 0.4999 -0.4999 0.8661 462.1527 -482.4392)" fill="#FFECBA" cx="1131.49" cy="621.332" rx="3.738" ry="3.76"/>
		</g>
		<g>
			
				<ellipse transform="matrix(0.866 0.5 -0.5 0.866 469.3922 -489.6301)" fill="#FFECBA" cx="1148.324" cy="631.049" rx="3.738" ry="3.761"/>
		</g>
		<g>
			
				<ellipse transform="matrix(0.866 0.5 -0.5 0.866 476.5068 -496.7444)" fill="#FFECBA" cx="1165.156" cy="640.768" rx="3.738" ry="3.76"/>
		</g>
		<g>
			
				<ellipse transform="matrix(0.866 0.5 -0.5 0.866 483.6219 -503.8594)" fill="#FFECBA" cx="1181.99" cy="650.487" rx="3.738" ry="3.76"/>
		</g>
		<g>
			
				<ellipse transform="matrix(0.866 0.5 -0.5 0.866 490.7367 -510.9736)" fill="#FFECBA" cx="1198.822" cy="660.206" rx="3.738" ry="3.76"/>
		</g>
		<g>
			
				<ellipse transform="matrix(0.866 0.5 -0.5 0.866 497.8517 -518.0886)" fill="#FFECBA" cx="1215.656" cy="669.924" rx="3.738" ry="3.76"/>
		</g>
		<g>
			
				<ellipse transform="matrix(0.866 0.5 -0.5 0.866 504.9665 -525.2029)" fill="#FFECBA" cx="1232.488" cy="679.643" rx="3.738" ry="3.76"/>
		</g>
		<g>
			
				<ellipse transform="matrix(0.866 0.5 -0.5 0.866 512.0813 -532.318)" fill="#FFECBA" cx="1249.322" cy="689.361" rx="3.738" ry="3.76"/>
		</g>
		<g>
			
				<ellipse transform="matrix(0.866 0.5 -0.5 0.866 519.1959 -539.4321)" fill="#FFECBA" cx="1266.154" cy="699.08" rx="3.738" ry="3.76"/>
		</g>
		<g>
			
				<ellipse transform="matrix(0.8661 0.4998 -0.4998 0.8661 526.0264 -546.3761)" fill="#FFECBA" cx="1282.988" cy="708.798" rx="3.738" ry="3.76"/>
		</g>
		<g>
			
				<ellipse transform="matrix(0.8661 0.4998 -0.4998 0.8661 533.1375 -553.488)" fill="#FFECBA" cx="1299.82" cy="718.517" rx="3.738" ry="3.76"/>
		</g>
		<g>
			
				<ellipse transform="matrix(0.866 0.5 -0.5 0.866 540.5398 -560.7767)" fill="#FFECBA" cx="1316.654" cy="728.234" rx="3.738" ry="3.761"/>
		</g>
		<g>
			
				<ellipse transform="matrix(0.866 0.5001 -0.5001 0.866 547.8253 -567.994)" fill="#FFECBA" cx="1333.487" cy="737.953" rx="3.737" ry="3.76"/>
		</g>
		<g>
			
				<ellipse transform="matrix(0.866 0.5 -0.5 0.866 554.7697 -575.006)" fill="#FFECBA" cx="1350.32" cy="747.672" rx="3.738" ry="3.76"/>
		</g>
		<g>
			
				<ellipse transform="matrix(0.866 0.5001 -0.5001 0.866 562.0594 -582.2258)" fill="#FFECBA" cx="1367.153" cy="757.391" rx="3.737" ry="3.76"/>
		</g>
		<g>
			
				<ellipse transform="matrix(0.866 0.5 -0.5 0.866 568.9995 -589.2352)" fill="#FFECBA" cx="1383.986" cy="767.109" rx="3.738" ry="3.76"/>
		</g>
	</g>
	<circle fill="#381D33" cx="996.707" cy="312.207" r="222.596"/>
	<linearGradient id="SVGID_1_" gradientUnits="userSpaceOnUse" x1="243.0313" y1="700" x2="536.35" y2="700">
		<stop  offset="0" style="stop-color:#FCAF17"/>
		<stop  offset="0.4183" style="stop-color:#F9AC18"/>
		<stop  offset="0.6118" style="stop-color:#F3A319"/>
		<stop  offset="0.7591" style="stop-color:#EA961A"/>
		<stop  offset="0.8822" style="stop-color:#DF851A"/>
		<stop  offset="0.9904" style="stop-color:#D1701A"/>
		<stop  offset="1" style="stop-color:#D06E1A"/>
	</linearGradient>
	<rect x="0" fill="url(#SVGID_1_)" width="517.905" height="1400"/>
	<g>
		<g>
			
				<ellipse transform="matrix(0.866 0.5 -0.5 0.866 49.7262 -169.0681)" fill="#381E33" cx="340.378" cy="8.265" rx="3.753" ry="3.76"/>
		</g>
		<g>
			
				<ellipse transform="matrix(0.866 0.5001 -0.5001 0.866 56.8909 -176.2453)" fill="#381E33" cx="357.281" cy="18.023" rx="3.753" ry="3.76"/>
		</g>
		<g>
			
				<ellipse transform="matrix(0.866 0.5001 -0.5001 0.866 64.0428 -183.3999)" fill="#381E33" cx="374.183" cy="27.782" rx="3.753" ry="3.76"/>
		</g>
		<g>
			
				<ellipse transform="matrix(0.866 0.5 -0.5 0.866 71.1624 -190.5086)" fill="#381E33" cx="391.086" cy="37.541" rx="3.753" ry="3.76"/>
		</g>
		<g>
			
				<ellipse transform="matrix(0.866 0.5 -0.5 0.866 78.2981 -197.6416)" fill="#381E33" cx="407.988" cy="47.299" rx="3.753" ry="3.76"/>
		</g>
		<g>
			
				<ellipse transform="matrix(0.866 0.5 -0.5 0.866 85.4412 -204.7849)" fill="#381E33" cx="424.891" cy="57.058" rx="3.753" ry="3.76"/>
		</g>
		<g>
			
				<ellipse transform="matrix(0.866 0.5001 -0.5001 0.866 92.6154 -211.9676)" fill="#381E33" cx="441.793" cy="66.816" rx="3.753" ry="3.76"/>
		</g>
		<g>
			
				<ellipse transform="matrix(0.866 0.5001 -0.5001 0.866 99.7604 -219.1119)" fill="#381E33" cx="458.695" cy="76.575" rx="3.753" ry="3.76"/>
		</g>
		<g>
			
				<ellipse transform="matrix(0.866 0.5 -0.5 0.866 106.8699 -226.2148)" fill="#381E33" cx="475.598" cy="86.333" rx="3.753" ry="3.76"/>
		</g>
		<g>
			
				<ellipse transform="matrix(0.866 0.5 -0.5 0.866 114.013 -233.3581)" fill="#381E33" cx="492.5" cy="96.092" rx="3.753" ry="3.76"/>
		</g>
		<g>
			
				<ellipse transform="matrix(0.866 0.5 -0.5 0.866 121.1561 -240.5014)" fill="#381E33" cx="509.402" cy="105.851" rx="3.753" ry="3.76"/>
		</g>
		<g>
			
				<ellipse transform="matrix(0.866 0.5001 -0.5001 0.866 128.3398 -247.6896)" fill="#381E33" cx="526.305" cy="115.609" rx="3.753" ry="3.76"/>
		</g>
		<g>
			
				<ellipse transform="matrix(0.866 0.5 -0.5 0.866 135.4417 -254.7881)" fill="#381E33" cx="543.207" cy="125.368" rx="3.753" ry="3.76"/>
		</g>
		<g>
			
				<ellipse transform="matrix(0.866 0.5 -0.5 0.866 142.5848 -261.9314)" fill="#381E33" cx="560.109" cy="135.126" rx="3.753" ry="3.76"/>
		</g>
		<g>
			
				<ellipse transform="matrix(0.866 0.5 -0.5 0.866 149.7279 -269.0747)" fill="#381E33" cx="577.012" cy="144.885" rx="3.753" ry="3.76"/>
		</g>
		<g>
			
				<ellipse transform="matrix(0.866 0.5 -0.5 0.866 156.871 -276.218)" fill="#381E33" cx="593.914" cy="154.644" rx="3.753" ry="3.76"/>
		</g>
		<g>
			
				<ellipse transform="matrix(0.866 0.5001 -0.5001 0.866 164.0643 -283.4116)" fill="#381E33" cx="610.816" cy="164.402" rx="3.753" ry="3.76"/>
		</g>
		<g>
			
				<ellipse transform="matrix(0.866 0.5 -0.5 0.866 171.1567 -290.5046)" fill="#381E33" cx="627.719" cy="174.161" rx="3.753" ry="3.76"/>
		</g>
		<g>
			
				<ellipse transform="matrix(0.866 0.5 -0.5 0.866 178.2997 -297.6479)" fill="#381E33" cx="644.621" cy="183.919" rx="3.753" ry="3.76"/>
		</g>
		<g>
			
				<ellipse transform="matrix(0.866 0.5 -0.5 0.866 185.459 -304.8068)" fill="#381E33" cx="661.524" cy="193.678" rx="3.753" ry="3.76"/>
		</g>
		<g>
			
				<ellipse transform="matrix(0.866 0.5 -0.5 0.866 192.5859 -311.9344)" fill="#381E33" cx="678.426" cy="203.437" rx="3.753" ry="3.76"/>
		</g>
		<g>
			
				<ellipse transform="matrix(0.866 0.5 -0.5 0.866 199.7541 -319.1017)" fill="#381E33" cx="695.329" cy="213.195" rx="3.754" ry="3.76"/>
		</g>
		<g>
			
				<ellipse transform="matrix(0.866 0.5 -0.5 0.866 206.9073 -326.2543)" fill="#381E33" cx="712.231" cy="222.954" rx="3.753" ry="3.76"/>
		</g>
		<g>
			
				<ellipse transform="matrix(0.866 0.5 -0.5 0.866 214.0515 -333.3982)" fill="#381E33" cx="729.133" cy="232.712" rx="3.753" ry="3.76"/>
		</g>
		<g>
			
				<ellipse transform="matrix(0.866 0.5 -0.5 0.866 221.1957 -340.5421)" fill="#381E33" cx="746.036" cy="242.471" rx="3.753" ry="3.76"/>
		</g>
		<g>
			
				<ellipse transform="matrix(0.866 0.5 -0.5 0.866 228.3399 -347.686)" fill="#381E33" cx="762.938" cy="252.23" rx="3.753" ry="3.76"/>
		</g>
		<g>
			
				<ellipse transform="matrix(0.866 0.5001 -0.5001 0.866 235.5533 -354.8913)" fill="#381E33" cx="779.84" cy="261.988" rx="3.753" ry="3.759"/>
		</g>
		<g>
			
				<ellipse transform="matrix(0.866 0.5 -0.5 0.866 242.6277 -361.974)" fill="#381E33" cx="796.743" cy="271.747" rx="3.753" ry="3.76"/>
		</g>
		<g>
			
				<ellipse transform="matrix(0.866 0.5 -0.5 0.866 249.772 -369.1179)" fill="#381E33" cx="813.645" cy="281.505" rx="3.753" ry="3.76"/>
		</g>
		<g>
			
				<ellipse transform="matrix(0.866 0.5 -0.5 0.866 256.9161 -376.2618)" fill="#381E33" cx="830.547" cy="291.264" rx="3.753" ry="3.76"/>
		</g>
		<g>
			
				<ellipse transform="matrix(0.866 0.5001 -0.5001 0.866 264.1372 -383.4715)" fill="#381E33" cx="847.45" cy="301.022" rx="3.753" ry="3.76"/>
		</g>
		<g>
			
				<ellipse transform="matrix(0.866 0.5001 -0.5001 0.866 271.2832 -390.6165)" fill="#381E33" cx="864.352" cy="310.781" rx="3.753" ry="3.759"/>
		</g>
		<g>
			
				<ellipse transform="matrix(0.866 0.5 -0.5 0.866 278.3481 -397.6937)" fill="#381E33" cx="881.254" cy="320.54" rx="3.753" ry="3.76"/>
		</g>
		<g>
			
				<ellipse transform="matrix(0.866 0.5 -0.5 0.866 285.4924 -404.8376)" fill="#381E33" cx="898.157" cy="330.298" rx="3.753" ry="3.76"/>
		</g>
		<g>
			
				<ellipse transform="matrix(0.866 0.5 -0.5 0.866 292.6365 -411.9816)" fill="#381E33" cx="915.059" cy="340.057" rx="3.753" ry="3.76"/>
		</g>
		<g>
			
				<ellipse transform="matrix(0.866 0.5 -0.5 0.866 299.7672 -419.115)" fill="#381E33" cx="931.962" cy="349.815" rx="3.754" ry="3.76"/>
		</g>
		<g>
			
				<ellipse transform="matrix(0.866 0.5 -0.5 0.866 306.911 -426.2587)" fill="#381E33" cx="948.865" cy="359.574" rx="3.754" ry="3.76"/>
		</g>
		<g>
			
				<ellipse transform="matrix(0.8661 0.4999 -0.4999 0.8661 313.9642 -433.3291)" fill="#381E33" cx="965.767" cy="369.333" rx="3.754" ry="3.76"/>
		</g>
		<g>
			
				<ellipse transform="matrix(0.866 0.5 -0.5 0.866 321.2128 -440.5573)" fill="#381E33" cx="982.668" cy="379.091" rx="3.753" ry="3.76"/>
		</g>
		<g>
			
				<ellipse transform="matrix(0.866 0.5001 -0.5001 0.866 328.4509 -447.7769)" fill="#381E33" cx="999.571" cy="388.85" rx="3.753" ry="3.76"/>
		</g>
		<g>
			
				<ellipse transform="matrix(0.866 0.5001 -0.5001 0.866 335.597 -454.9219)" fill="#381E33" cx="1016.473" cy="398.608" rx="3.753" ry="3.759"/>
		</g>
		<g>
			
				<ellipse transform="matrix(0.866 0.5001 -0.5001 0.866 342.7431 -462.0669)" fill="#381E33" cx="1033.375" cy="408.367" rx="3.753" ry="3.759"/>
		</g>
		<g>
			
				<ellipse transform="matrix(0.866 0.5 -0.5 0.866 349.789 -469.1332)" fill="#381E33" cx="1050.278" cy="418.125" rx="3.753" ry="3.76"/>
		</g>
		<g>
			
				<ellipse transform="matrix(0.866 0.5 -0.5 0.866 356.9331 -476.277)" fill="#381E33" cx="1067.18" cy="427.884" rx="3.753" ry="3.76"/>
		</g>
		<g>
			
				<ellipse transform="matrix(0.866 0.5001 -0.5001 0.866 364.1808 -483.5021)" fill="#381E33" cx="1084.083" cy="437.643" rx="3.753" ry="3.76"/>
		</g>
		<g>
			
				<ellipse transform="matrix(0.866 0.5001 -0.5001 0.866 371.3269 -490.6471)" fill="#381E33" cx="1100.985" cy="447.401" rx="3.753" ry="3.759"/>
		</g>
		<g>
			
				<ellipse transform="matrix(0.866 0.5001 -0.5001 0.866 378.473 -497.7921)" fill="#381E33" cx="1117.887" cy="457.16" rx="3.753" ry="3.759"/>
		</g>
		<g>
			
				<ellipse transform="matrix(0.866 0.5 -0.5 0.866 385.5094 -504.8528)" fill="#381E33" cx="1134.79" cy="466.918" rx="3.753" ry="3.76"/>
		</g>
		<g>
			
				<ellipse transform="matrix(0.866 0.5 -0.5 0.866 392.6536 -511.9967)" fill="#381E33" cx="1151.692" cy="476.677" rx="3.753" ry="3.76"/>
		</g>
		<g>
			
				<ellipse transform="matrix(0.866 0.5001 -0.5001 0.866 399.9107 -519.2273)" fill="#381E33" cx="1168.594" cy="486.436" rx="3.753" ry="3.759"/>
		</g>
		<g>
			
				<ellipse transform="matrix(0.866 0.5001 -0.5001 0.866 407.0568 -526.3723)" fill="#381E33" cx="1185.497" cy="496.194" rx="3.753" ry="3.759"/>
		</g>
		<g>
			
				<ellipse transform="matrix(0.8661 0.4999 -0.4999 0.8661 413.9505 -533.3264)" fill="#381E33" cx="1202.4" cy="505.953" rx="3.754" ry="3.76"/>
		</g>
		<g>
			
				<ellipse transform="matrix(0.8661 0.4999 -0.4999 0.8661 421.0925 -540.4691)" fill="#381E33" cx="1219.302" cy="515.711" rx="3.754" ry="3.76"/>
		</g>
		<g>
			
				<ellipse transform="matrix(0.8661 0.4999 -0.4999 0.8661 428.2344 -547.6118)" fill="#381E33" cx="1236.205" cy="525.47" rx="3.754" ry="3.76"/>
		</g>
		<g>
			
				<ellipse transform="matrix(0.866 0.5 -0.5 0.866 435.499 -554.8467)" fill="#381E33" cx="1253.107" cy="535.229" rx="3.754" ry="3.76"/>
		</g>
		<g>
			
				<ellipse transform="matrix(0.8661 0.4999 -0.4999 0.8661 442.5178 -561.8972)" fill="#381E33" cx="1270.009" cy="544.987" rx="3.754" ry="3.76"/>
		</g>
	</g>
	<g>
		<path fill="#381D33" d="M1232.147,1276.01c-0.426,0-0.855-0.107-1.248-0.334l-366.568-211.639
			c-1.195-0.691-1.605-2.221-0.914-3.416c0.689-1.195,2.219-1.605,3.414-0.914l366.568,211.639c1.195,0.689,1.605,2.219,0.914,3.414
			C1233.85,1275.563,1233.01,1276.01,1232.147,1276.01z"/>
	</g>
	<path fill="#381D33" d="M1400,1007.717l-169.102,97.631c-0.773,0.447-1.25,1.271-1.25,2.166v164.555l-147.707,85.279
		c-0.773,0.445-1.25,1.271-1.25,2.164V1400h5v-39.045l147.707-85.277c0.773-0.447,1.25-1.271,1.25-2.166v-164.555L1400,1013.49
		V1007.717z"/>
	<polygon fill="#381D33" points="882.096,1249.85 89.684,792.35 517.904,545.117 1310.317,1002.617 	"/>
	<g>
		<path fill="#73B143" d="M882.096,1251.85c-0.346,0-0.689-0.088-1-0.268l-792.413-457.5c-0.619-0.357-1-1.018-1-1.732
			s0.381-1.375,1-1.732l428.22-247.232c0.619-0.355,1.381-0.355,2,0l792.413,457.5c0.619,0.357,1,1.018,1,1.732
			s-0.381,1.375-1,1.732l-428.221,247.232C882.788,1251.762,882.442,1251.85,882.096,1251.85z M93.684,792.35l788.413,455.191
			l424.221-244.924l-788.413-455.19L93.684,792.35z"/>
	</g>
	<g>
		<path fill="#73B143" d="M89.684,1098.293c-1.104,0-2-0.896-2-2V792.35c0-1.104,0.896-2,2-2s2,0.896,2,2v303.943
			C91.684,1097.396,90.788,1098.293,89.684,1098.293z"/>
	</g>
	<g>
		<path fill="#FFECB8" d="M139.86,939.826l-9.453-5.457l-0.001-20.357l9.878,5.701c1.274,4.336,3.222,8.197,5.842,11.59
			c2.62,3.395,5.824,6.184,9.612,8.371c2.265,1.309,4.097,1.732,5.497,1.271c1.398-0.459,2.098-1.711,2.098-3.754
			c0-1.719-0.531-3.344-1.593-4.877c-1.063-1.531-3.471-3.791-7.223-6.775l-8.338-6.408c-5.559-4.354-9.675-8.744-12.348-13.17
			c-2.674-4.426-4.009-9.049-4.009-13.873c0-5.436,1.673-8.824,5.019-10.164c3.346-1.338,7.797-0.404,13.357,2.807
			c3.044,1.758,5.762,3.797,8.151,6.115c2.39,2.322,4.399,4.852,6.027,7.59l0.106-3.926l9.453,5.459v18.457l-10.25-5.918
			c-0.885-3.617-2.355-6.836-4.409-9.658c-2.053-2.82-4.566-5.09-7.541-6.807c-2.408-1.391-4.328-1.926-5.762-1.609
			c-1.434,0.316-2.15,1.375-2.151,3.174c0,3.393,3.257,7.666,9.772,12.816c0.318,0.225,0.566,0.408,0.743,0.553l5.788,4.506
			c6.019,4.742,10.463,9.412,13.33,14.012c2.868,4.6,4.302,9.354,4.302,14.258c0,5.314-1.779,8.672-5.337,10.072
			c-3.558,1.4-8.205,0.445-13.941-2.867c-2.903-1.676-5.708-3.777-8.417-6.301s-5.409-5.545-8.099-9.061L139.86,939.826z"/>
		<path fill="#FFECB8" d="M183.142,935.566c0-8.668,2.673-14.402,8.02-17.201c5.346-2.801,12.002-1.9,19.968,2.697
			c7.966,4.6,14.613,11.381,19.941,20.344c5.329,8.963,7.993,17.779,7.993,26.445c0,8.627-2.656,14.33-7.966,17.109
			c-5.31,2.781-11.967,1.859-19.968-2.76c-7.966-4.6-14.622-11.365-19.968-20.299C185.815,952.971,183.142,944.191,183.142,935.566z
			 M196.207,943.109c0,5.109,1.433,10.209,4.301,15.299c2.868,5.09,6.408,8.85,10.621,11.283c4.213,2.432,7.745,2.766,10.595,0.996
			c2.849-1.768,4.275-5.227,4.275-10.379c0-5.273-1.417-10.424-4.248-15.453c-2.833-5.027-6.373-8.77-10.622-11.221
			c-4.249-2.453-7.798-2.795-10.647-1.027C197.631,934.375,196.207,937.875,196.207,943.109z"/>
		<path fill="#FFECB8" d="M295.197,1016.328c-3.222,2.963-6.833,4.537-10.833,4.721c-4.001,0.184-8.303-1.053-12.905-3.709
			c-7.719-4.457-14.126-11.08-19.225-19.869c-5.098-8.789-7.647-17.6-7.647-26.43c0-8.871,2.398-14.836,7.196-17.891
			c4.796-3.057,10.771-2.52,17.923,1.609c2.69,1.553,5.169,3.455,7.435,5.703s4.284,4.824,6.055,7.727v-3.986l9.931,5.734v19.561
			l-8.072-4.66c-2.23-4.516-4.434-8.059-6.612-10.623c-2.177-2.566-4.789-4.729-7.833-6.486c-4.072-2.35-7.321-2.57-9.746-0.658
			s-3.638,5.668-3.638,11.268c0,5.15,1.345,10.23,4.036,15.238c2.69,5.008,6.054,8.678,10.09,11.008
			c3.151,1.82,5.93,2.697,8.338,2.637c2.407-0.061,4.957-1.094,7.647-3.096L295.197,1016.328z"/>
		<path fill="#FFECB8" d="M351.331,1048.736c-3.222,2.963-6.833,4.539-10.833,4.721c-4.001,0.184-8.303-1.053-12.905-3.709
			c-7.719-4.457-14.126-11.078-19.226-19.869c-5.098-8.789-7.646-17.6-7.646-26.43c0-8.871,2.398-14.834,7.196-17.891
			c4.797-3.057,10.772-2.52,17.923,1.609c2.69,1.555,5.169,3.455,7.435,5.703c2.266,2.25,4.283,4.824,6.054,7.727v-3.984
			l9.931,5.732v19.563l-8.072-4.662c-2.23-4.516-4.434-8.057-6.612-10.623c-2.177-2.564-4.789-4.727-7.833-6.484
			c-4.072-2.352-7.321-2.57-9.746-0.66c-2.426,1.912-3.638,5.668-3.638,11.268c0,5.15,1.345,10.232,4.036,15.24
			c2.69,5.008,6.055,8.676,10.09,11.006c3.151,1.82,5.93,2.699,8.338,2.637c2.407-0.061,4.956-1.094,7.647-3.096L351.331,1048.736z"
			/>
		<path fill="#FFECB8" d="M410.386,1078.783c-1.487,5.111-4.443,8.023-8.868,8.74c-4.427,0.715-9.95-0.84-16.569-4.662
			c-8.392-4.844-15.154-11.568-20.287-20.174c-5.134-8.605-7.701-17.486-7.701-26.645c0-8.953,2.61-14.795,7.833-17.523
			c5.222-2.727,11.904-1.742,20.048,2.959c8.107,4.68,14.622,11.479,19.543,20.391c4.921,8.91,7.382,18.438,7.382,28.574v1.473
			l-41.848-24.16c0.425,4.742,1.964,9.086,4.62,13.029c2.655,3.945,6.23,7.217,10.728,9.813c2.796,1.613,5.311,2.514,7.541,2.697
			c2.23,0.186,3.947-0.377,5.151-1.686L410.386,1078.783z M369.919,1037.514l29.368,16.957c-1.027-4.641-2.771-8.715-5.231-12.219
			c-2.461-3.506-5.532-6.322-9.214-8.447c-3.824-2.209-7.055-2.99-9.692-2.346C372.512,1032.104,370.769,1034.121,369.919,1037.514z
			"/>
		<path fill="#FFECB8" d="M437.471,1061.676l0.637,0.123c0.708-2.535,1.859-4.141,3.452-4.814c1.594-0.674,3.523-0.357,5.789,0.949
			c2.584,1.492,4.717,3.705,6.399,6.639c1.681,2.934,2.523,5.912,2.523,8.938c0,3.027-0.832,5.02-2.496,5.979
			c-1.665,0.963-3.842,0.664-6.532-0.889c-2.018-1.164-3.797-2.875-5.337-5.135c-1.54-2.258-2.771-4.961-3.691-8.111l-0.743-0.061
			v34.156l7.063,4.078v12.203l-26.766-15.453v-12.203l7.063,4.078v-34.033l-7.063-4.08v-12.141l19.703,11.375V1061.676z"/>
	</g>
	<polygon fill="#381D33" points="517.904,1155.021 93.589,1400 942.219,1400 	"/>
	<g>
		<radialGradient id="SVGID_2_" cx="694.3599" cy="672.0547" r="745.0154" gradientUnits="userSpaceOnUse">
			<stop  offset="0" style="stop-color:#659E3B"/>
			<stop  offset="0.326" style="stop-color:#649C3B"/>
			<stop  offset="0.4952" style="stop-color:#619839"/>
			<stop  offset="0.6283" style="stop-color:#5B9136"/>
			<stop  offset="0.7427" style="stop-color:#538631"/>
			<stop  offset="0.8439" style="stop-color:#48782A"/>
			<stop  offset="0.8925" style="stop-color:#427026"/>
		</radialGradient>
		<polygon fill="url(#SVGID_2_)" points="517.904,372.061 89.684,619.294 882.096,1076.793 1310.317,829.561 		"/>
		<radialGradient id="SVGID_3_" cx="694.3599" cy="672.0547" r="745.0154" gradientUnits="userSpaceOnUse">
			<stop  offset="0" style="stop-color:#5A9035"/>
			<stop  offset="0.3232" style="stop-color:#598F35"/>
			<stop  offset="0.4909" style="stop-color:#568A33"/>
			<stop  offset="0.6229" style="stop-color:#50832F"/>
			<stop  offset="0.7363" style="stop-color:#47782A"/>
			<stop  offset="0.8366" style="stop-color:#3D6A23"/>
			<stop  offset="0.8925" style="stop-color:#35611E"/>
		</radialGradient>
		<path fill="url(#SVGID_3_)" d="M661.601,455.024l-428.22,247.233l26.028,15.027l428.22-247.233L661.601,455.024z M709.5,482.679
			L281.28,729.912l26.028,15.027l428.22-247.233L709.5,482.679z M757.399,510.333l-428.22,247.233l26.028,15.027L783.428,525.36
			L757.399,510.333z M805.299,537.987L377.078,785.221l26.028,15.027l428.221-247.233L805.299,537.987z M853.198,565.643
			L424.977,812.875l26.028,15.027l428.22-247.233L853.198,565.643z M1284.29,814.533l-428.221,247.232l26.027,15.027
			l428.221-247.232L1284.29,814.533z M613.702,427.369l-428.22,247.233l26.028,15.029l428.22-247.233L613.702,427.369z
			 M565.803,399.715l-428.22,247.233l26.028,15.027l428.221-247.233L565.803,399.715z M517.904,372.061L89.684,619.294
			l26.028,15.027l428.22-247.233L517.904,372.061z M1188.491,759.225L760.27,1006.457l26.029,15.027l428.219-247.234
			L1188.491,759.225z M1092.692,703.914l-428.22,247.234l26.027,15.027l428.222-247.234L1092.692,703.914z M1140.592,731.568
			L712.372,978.803l26.027,15.027l428.221-247.234L1140.592,731.568z M1236.389,786.879L808.17,1034.111l26.027,15.027
			l428.219-247.232L1236.389,786.879z M1044.793,676.26l-428.22,247.234l26.028,15.025l428.219-247.232L1044.793,676.26z
			 M901.096,593.297l-428.22,247.232l26.028,15.027l428.219-247.232L901.096,593.297z M948.997,620.951L520.775,868.184
			l26.027,15.027l428.221-247.232L948.997,620.951z M996.895,648.606L568.674,895.838l26.028,15.029l428.22-247.234L996.895,648.606
			z"/>
		<g>
			<g>
				<path fill="#437227" d="M876.094,1029.617l-0.75-0.434L171.394,622.76l352.513-203.522l0.75,0.432l703.949,406.425
					L876.094,1029.617z M177.394,622.76l698.7,403.393l346.512-200.059L523.907,422.7L177.394,622.76z"/>
			</g>
			<g>
				
					<rect x="698.501" y="522.636" transform="matrix(0.5001 0.866 -0.866 0.5001 977.3053 -244.0246)" fill="#437227" width="3" height="403.583"/>
			</g>
			<g>
				<path fill="#437227" d="M700,780.389c-25.455,0-49.409-5.736-67.451-16.152c-18.3-10.566-28.378-24.703-28.378-39.811
					c0-15.105,10.078-29.242,28.378-39.809c18.041-10.416,41.994-16.152,67.449-16.152c25.458,0,49.413,5.736,67.456,16.154
					c18.299,10.564,28.379,24.703,28.377,39.809c0,15.105-10.078,29.242-28.379,39.807C749.411,774.65,725.458,780.389,700,780.389z
					 M699.998,671.465c-24.936,0-48.357,5.594-65.949,15.75c-17.333,10.008-26.878,23.223-26.878,37.211
					c0,13.99,9.545,27.205,26.878,37.213c17.592,10.156,41.014,15.75,65.951,15.75c24.938,0,48.36-5.594,65.952-15.752
					c17.334-10.006,26.879-23.221,26.879-37.209c0.002-13.988-9.545-27.205-26.877-37.211
					C748.36,677.059,724.936,671.465,699.998,671.465z"/>
			</g>
			<g>
				<g>
					<path fill="#437227" d="M192.848,635.145l-21.454-12.385l21.451-12.386l0.75,0.434c5.414,3.125,8.395,7.371,8.395,11.955
						c0,4.582-2.98,8.826-8.393,11.951L192.848,635.145z M177.394,622.76l15.438,8.913c3.979-2.5,6.158-5.64,6.158-8.91
						c0-3.271-2.18-6.414-6.161-8.915L177.394,622.76z"/>
				</g>
				<g>
					<path fill="#437227" d="M523.908,437.536c-7.229,0-14.05-1.639-19.204-4.615l-2.25-1.299l21.453-12.385l21.453,12.385
						l-2.25,1.299C537.957,435.897,531.137,437.536,523.908,437.536z M508.597,431.54c4.349,1.943,9.681,2.996,15.311,2.996
						s10.961-1.053,15.31-2.996l-15.311-8.84L508.597,431.54z"/>
				</g>
			</g>
			<g>
				<g>
					<path fill="#437227" d="M876.094,1029.617l-21.451-12.385l2.25-1.299c5.152-2.975,11.973-4.613,19.201-4.613
						s14.047,1.639,19.201,4.613l2.25,1.299L876.094,1029.617z M860.786,1017.314l15.309,8.838l15.309-8.838
						c-4.35-1.941-9.68-2.994-15.309-2.994S865.133,1015.373,860.786,1017.314z"/>
				</g>
				<g>
					<path fill="#437227" d="M1207.153,838.48l-0.75-0.434c-5.412-3.125-8.393-7.369-8.393-11.953c0-4.582,2.98-8.826,8.395-11.951
						l0.75-0.434l21.451,12.385L1207.153,838.48z M1207.17,817.182c-3.98,2.5-6.16,5.643-6.16,8.912s2.18,6.412,6.158,8.912
						l15.438-8.912L1207.17,817.182z"/>
				</g>
			</g>
			<g>
				<g>
					<path fill="#437227" d="M331.429,625.739l-82.598-47.688l197.639-114.106l82.598,47.688L331.429,625.739z M254.832,578.051
						l76.598,44.224l191.639-110.643l-76.598-44.223L254.832,578.051z"/>
				</g>
				<g>
					<path fill="#437227" d="M388.955,600.802C388.954,600.802,388.956,600.802,388.955,600.802c-4.626,0-9.29-0.196-13.862-0.582
						l-4.765-0.402l112.915-65.193l0.487,1.922c4.475,17.658-5.742,35.642-27.33,48.104
						C438.364,595.065,414.41,600.802,388.955,600.802z M380.225,597.567c2.903,0.155,5.823,0.234,8.729,0.234
						c24.938,0,48.358-5.594,65.946-15.749c19.846-11.458,29.347-26.966,26.354-42.815L380.225,597.567z"/>
				</g>
				<g>
					<path fill="#437227" d="M342.32,562.97l-33.684-19.447l78.028-45.049l33.683,19.447L342.32,562.97z M314.637,543.522
						l27.684,15.982l72.028-41.584l-27.683-15.982L314.637,543.522z"/>
				</g>
				<g>
					<path fill="#437227" d="M323.081,538.647l-12.115-6.995l55.139-31.835l12.115,6.995L323.081,538.647z M316.966,531.652
						l6.115,3.53l49.139-28.37l-6.115-3.53L316.966,531.652z"/>
				</g>
			</g>
			<g>
				<g>
					<path fill="#437227" d="M953.866,985.102l-0.75-0.434l-81.848-47.254l197.637-114.107l0.75,0.434l81.85,47.254L953.866,985.102
						z M877.268,937.414l76.598,44.223l191.639-110.643l-76.6-44.223L877.268,937.414z"/>
				</g>
				<g>
					<path fill="#437227" d="M917.092,914.422l-0.488-1.922c-4.475-17.658,5.742-35.641,27.33-48.105
						c18.037-10.414,41.99-16.148,67.449-16.148c4.623,0,9.285,0.195,13.857,0.58l4.766,0.404L917.092,914.422z M1011.383,851.246
						c-24.939,0-48.361,5.592-65.949,15.746c-19.846,11.459-29.348,26.967-26.354,42.816l101.027-58.328
						C1017.208,851.324,1014.288,851.246,1011.383,851.246z"/>
				</g>
				<g>
					<path fill="#437227" d="M1013.67,950.574l-33.682-19.447l78.025-45.051l33.684,19.447L1013.67,950.574z M985.987,931.127
						l27.684,15.982l72.027-41.586l-27.684-15.982L985.987,931.127z"/>
				</g>
				<g>
					<path fill="#437227" d="M1034.231,949.229l-12.115-6.994l55.137-31.836l12.115,6.996L1034.231,949.229z M1028.116,942.234
						l6.115,3.529l49.137-28.369l-6.115-3.531L1028.116,942.234z"/>
				</g>
			</g>
		</g>
		<g>
			<g>
				<path fill="#FFECB8" d="M876.094,949.229l-0.75-0.434l-703.95-406.424l352.513-203.522l0.75,0.432l703.949,406.425
					L876.094,949.229z M177.394,542.371l698.7,403.393l346.512-200.059L523.907,342.312L177.394,542.371z"/>
			</g>
			<g>
				
					<rect x="698.501" y="442.247" transform="matrix(0.5001 0.866 -0.866 0.5001 907.6895 -284.2141)" fill="#FFECB8" width="3" height="403.583"/>
			</g>
			<g>
				<path fill="#FFECB8" d="M700,700c-25.455,0-49.409-5.736-67.451-16.152c-18.3-10.566-28.378-24.703-28.378-39.81
					c0-15.105,10.078-29.243,28.378-39.808c18.041-10.416,41.994-16.152,67.449-16.152c25.458,0,49.413,5.736,67.456,16.153
					c18.299,10.565,28.379,24.704,28.377,39.809c0,15.105-10.078,29.242-28.379,39.806C749.411,694.262,725.458,700,700,700z
					 M699.998,591.077c-24.936,0-48.357,5.594-65.949,15.75c-17.333,10.008-26.878,23.222-26.878,37.21
					c0,13.99,9.545,27.205,26.878,37.213C651.641,691.406,675.063,697,700,697c24.938,0,48.36-5.594,65.952-15.751
					c17.334-10.006,26.879-23.221,26.879-37.209c0.002-13.988-9.545-27.205-26.877-37.211
					C748.36,596.671,724.936,591.077,699.998,591.077z"/>
			</g>
			<g>
				<g>
					<path fill="#FFECB8" d="M192.848,554.757l-21.454-12.386l21.451-12.386l0.75,0.434c5.414,3.125,8.395,7.371,8.395,11.955
						c0,4.582-2.98,8.826-8.393,11.95L192.848,554.757z M177.394,542.371l15.438,8.913c3.979-2.5,6.158-5.641,6.158-8.91
						c0-3.271-2.18-6.414-6.161-8.915L177.394,542.371z"/>
				</g>
				<g>
					<path fill="#FFECB8" d="M523.908,357.147c-7.229,0-14.05-1.639-19.204-4.615l-2.25-1.299l21.453-12.385l21.453,12.385
						l-2.25,1.299C537.957,355.509,531.137,357.147,523.908,357.147z M508.597,351.151c4.349,1.943,9.681,2.996,15.311,2.996
						s10.961-1.053,15.31-2.996l-15.311-8.84L508.597,351.151z"/>
				</g>
			</g>
			<g>
				<g>
					<path fill="#FFECB8" d="M876.094,949.229l-21.451-12.385l2.25-1.299c5.152-2.975,11.973-4.613,19.201-4.613
						s14.047,1.639,19.201,4.613l2.25,1.299L876.094,949.229z M860.786,936.926l15.309,8.838l15.309-8.838
						c-4.35-1.941-9.68-2.994-15.309-2.994S865.133,934.984,860.786,936.926z"/>
				</g>
				<g>
					<path fill="#FFECB8" d="M1207.153,758.092l-0.75-0.434c-5.412-3.125-8.393-7.369-8.393-11.953c0-4.582,2.98-8.826,8.395-11.951
						l0.75-0.434l21.451,12.385L1207.153,758.092z M1207.17,736.793c-3.98,2.5-6.16,5.643-6.16,8.912s2.18,6.412,6.158,8.912
						l15.438-8.912L1207.17,736.793z"/>
				</g>
			</g>
			<g>
				<g>
					<path fill="#FFECB8" d="M331.429,545.351l-82.598-47.688l197.639-114.106l82.598,47.688L331.429,545.351z M254.832,497.662
						l76.598,44.224l191.639-110.643l-76.598-44.223L254.832,497.662z"/>
				</g>
				<g>
					<path fill="#FFECB8" d="M388.955,520.413C388.954,520.413,388.956,520.413,388.955,520.413c-4.626,0-9.29-0.196-13.862-0.582
						l-4.765-0.402l112.915-65.193l0.487,1.922c4.475,17.658-5.742,35.642-27.33,48.104
						C438.364,514.677,414.41,520.413,388.955,520.413z M380.225,517.179c2.903,0.155,5.823,0.234,8.729,0.234
						c24.938,0,48.358-5.594,65.946-15.749c19.846-11.458,29.347-26.966,26.354-42.815L380.225,517.179z"/>
				</g>
				<g>
					<path fill="#FFECB8" d="M342.32,482.581l-33.684-19.447l78.028-45.049l33.683,19.447L342.32,482.581z M314.637,463.134
						l27.684,15.982l72.028-41.584l-27.683-15.982L314.637,463.134z"/>
				</g>
				<g>
					<path fill="#FFECB8" d="M323.081,458.259l-12.115-6.995l55.139-31.835l12.115,6.995L323.081,458.259z M316.966,451.264
						l6.115,3.53l49.139-28.37l-6.115-3.53L316.966,451.264z"/>
				</g>
			</g>
			<g>
				<g>
					<path fill="#FFECB8" d="M953.866,904.713l-0.75-0.434l-81.848-47.254l197.637-114.107l0.75,0.434l81.85,47.254L953.866,904.713
						z M877.268,857.025l76.598,44.223l191.639-110.643l-76.6-44.223L877.268,857.025z"/>
				</g>
				<g>
					<path fill="#FFECB8" d="M917.092,834.033l-0.488-1.922c-4.475-17.658,5.742-35.641,27.33-48.105
						c18.037-10.414,41.99-16.148,67.449-16.148c4.623,0,9.285,0.195,13.857,0.58l4.766,0.404L917.092,834.033z M1011.383,770.857
						c-24.939,0-48.361,5.592-65.949,15.746c-19.846,11.459-29.348,26.967-26.354,42.816l101.027-58.328
						C1017.208,770.936,1014.288,770.857,1011.383,770.857z"/>
				</g>
				<g>
					<path fill="#FFECB8" d="M1013.67,870.186l-33.682-19.447l78.025-45.051l33.684,19.447L1013.67,870.186z M985.987,850.738
						l27.684,15.982l72.027-41.586l-27.684-15.982L985.987,850.738z"/>
				</g>
				<g>
					<path fill="#FFECB8" d="M1034.231,868.84l-12.115-6.994l55.137-31.836l12.115,6.996L1034.231,868.84z M1028.116,861.846
						l6.115,3.529l49.137-28.369l-6.115-3.531L1028.116,861.846z"/>
				</g>
			</g>
		</g>
		<polygon fill="#406F26" points="89.684,619.294 882.096,1076.793 882.096,1175.674 89.684,718.174 		"/>
		<polygon fill="#325D1C" points="1310.317,829.561 882.096,1076.793 882.096,1175.674 1310.317,928.439 		"/>
		<linearGradient id="SVGID_4_" gradientUnits="userSpaceOnUse" x1="415.7778" y1="1036.5352" x2="506.7798" y2="881.532">
			<stop  offset="0" style="stop-color:#F7941E"/>
			<stop  offset="0.4187" style="stop-color:#F4911D"/>
			<stop  offset="0.6521" style="stop-color:#EC891D"/>
			<stop  offset="0.8393" style="stop-color:#E07D1C"/>
			<stop  offset="1" style="stop-color:#D06E1A"/>
		</linearGradient>
		<polygon fill="url(#SVGID_4_)" points="89.684,718.174 882.096,1175.674 882.096,1116.055 89.684,658.555 		"/>
		<linearGradient id="SVGID_5_" gradientUnits="userSpaceOnUse" x1="1177.1626" y1="1181.7314" x2="1077.1624" y2="984.7311">
			<stop  offset="0" style="stop-color:#C46717"/>
			<stop  offset="0.4747" style="stop-color:#C36517"/>
			<stop  offset="0.739" style="stop-color:#C16017"/>
			<stop  offset="0.9513" style="stop-color:#BD5617"/>
			<stop  offset="0.9946" style="stop-color:#BC5317"/>
		</linearGradient>
		<polygon fill="url(#SVGID_5_)" points="882.096,1175.674 1310.317,928.439 1310.317,868.822 882.096,1116.055 		"/>
	</g>
	<path fill="#73B143" d="M882.096,1247.85c-1.104,0-2,0.896-2,2V1400h4v-150.15C884.096,1248.746,883.202,1247.85,882.096,1247.85z"
		/>
	<g>
		<path fill="#73B143" d="M1310.317,1120.791c-1.105,0-2-0.895-2-2v-116.174c0-1.105,0.895-2,2-2c1.104,0,2,0.895,2,2v116.174
			C1312.317,1119.896,1311.42,1120.791,1310.317,1120.791z"/>
	</g>
	<g>
		<path fill="#FFECB8" d="M668.615,1322.9c-0.34,0-0.684-0.086-0.998-0.268l-460.194-265.693l0,181.023c0,1.105-0.896,2-2,2
			s-2-0.895-2-2l0-184.488c0-0.715,0.381-1.375,1-1.732c0.619-0.357,1.381-0.357,2,0l463.194,267.426
			c0.956,0.553,1.283,1.775,0.731,2.732C669.978,1322.543,669.306,1322.9,668.615,1322.9z"/>
	</g>
	<g>
		<path fill="#381D33" d="M785.547,1218.578c-0.424,0-0.854-0.107-1.246-0.336L350.549,967.814
			c-1.196-0.689-1.605-2.219-0.915-3.414c0.69-1.195,2.219-1.607,3.415-0.916l433.752,250.428c1.195,0.691,1.605,2.221,0.914,3.416
			C787.252,1218.129,786.413,1218.578,785.547,1218.578z"/>
	</g>
	<radialGradient id="SVGID_6_" cx="996.7065" cy="312.207" r="214.6564" gradientUnits="userSpaceOnUse">
		<stop  offset="0.828" style="stop-color:#427026"/>
		<stop  offset="0.8299" style="stop-color:#437227"/>
		<stop  offset="0.8504" style="stop-color:#528531"/>
		<stop  offset="0.8724" style="stop-color:#5F9537"/>
		<stop  offset="0.8959" style="stop-color:#67A13C"/>
		<stop  offset="0.9217" style="stop-color:#6DA940"/>
		<stop  offset="0.9515" style="stop-color:#71AE42"/>
		<stop  offset="0.9946" style="stop-color:#73B143"/>
	</radialGradient>
	<circle fill="url(#SVGID_6_)" cx="996.707" cy="312.207" r="202.116"/>
	<g>
		<path fill="#381D33" d="M733.862,353.895c-1.219,0-2.287-0.893-2.471-2.135c-1.922-13.002-2.896-26.31-2.896-39.553
			c0-71.642,27.9-138.995,78.559-189.653s118.012-78.558,189.652-78.558c115.42,0,217.625,73.466,254.328,182.81
			c0.439,1.31-0.266,2.727-1.574,3.166c-1.307,0.44-2.727-0.266-3.166-1.574c-36.018-107.306-136.32-179.401-249.588-179.401
			c-145.135,0-263.211,118.076-263.211,263.211c0,12.999,0.957,26.061,2.844,38.822c0.201,1.365-0.742,2.637-2.107,2.838
			C734.106,353.886,733.983,353.895,733.862,353.895z"/>
	</g>
	<g>
		<path fill="#FFECB8" d="M1310.315,614.306c-0.34,0-0.684-0.086-0.998-0.268l-195.35-112.785c-0.957-0.553-1.285-1.775-0.732-2.732
			c0.553-0.956,1.775-1.283,2.732-0.732l195.35,112.785c0.957,0.553,1.283,1.775,0.732,2.732
			C1311.678,613.947,1311.006,614.306,1310.315,614.306z"/>
	</g>
	<g>
		<path fill="#FFECB8" d="M89.686,404.039c-0.691,0-1.364-0.358-1.734-1c-0.552-0.957-0.225-2.18,0.732-2.732l428.22-247.233
			c0.619-0.357,1.381-0.357,2,0l257.474,148.651c0.955,0.553,1.283,1.775,0.73,2.732c-0.551,0.956-1.773,1.283-2.73,0.732
			L517.904,157.115L90.684,403.771C90.369,403.953,90.025,404.039,89.686,404.039z"/>
	</g>
	<g>
		<path fill="#FFECB8" d="M996.706,535.707c-59.697,0-115.824-23.248-158.037-65.462c-42.215-42.214-65.463-98.34-65.463-158.038
			s23.248-115.824,65.463-158.038c42.213-42.214,98.34-65.462,158.037-65.462c59.699,0,115.824,23.248,158.039,65.462
			c42.213,42.214,65.461,98.34,65.461,158.038s-23.248,115.824-65.461,158.038C1112.53,512.459,1056.405,535.707,996.706,535.707z
			 M996.706,92.707c-121.031,0-219.5,98.468-219.5,219.5s98.469,219.5,219.5,219.5c121.033,0,219.5-98.468,219.5-219.5
			S1117.739,92.707,996.706,92.707z"/>
	</g>
	<g>
		<g>
			
				<ellipse transform="matrix(0.866 0.5 -0.5 0.866 321.1614 79.1709)" fill="#FFECBA" cx="12.861" cy="638.819" rx="3.738" ry="3.76"/>
		</g>
		<g>
			
				<ellipse transform="matrix(0.866 0.5 -0.5 0.866 328.2768 72.0559)" fill="#FFECBA" cx="29.694" cy="648.538" rx="3.738" ry="3.76"/>
		</g>
		<g>
			
				<ellipse transform="matrix(0.866 0.5 -0.5 0.866 335.3922 64.941)" fill="#FFECBA" cx="46.527" cy="658.256" rx="3.738" ry="3.76"/>
		</g>
		<g>
			
				<ellipse transform="matrix(0.8661 0.4998 -0.4998 0.8661 342.3691 57.7628)" fill="#FFECBA" cx="63.36" cy="667.974" rx="3.737" ry="3.761"/>
		</g>
		<g>
			
				<ellipse transform="matrix(0.8661 0.4998 -0.4998 0.8661 349.4808 50.65)" fill="#FFECBA" cx="80.193" cy="677.693" rx="3.737" ry="3.761"/>
		</g>
		<g>
			
				<ellipse transform="matrix(0.866 0.5 -0.5 0.866 356.7374 43.5958)" fill="#FFECBA" cx="97.026" cy="687.41" rx="3.738" ry="3.761"/>
		</g>
		<g>
			
				<ellipse transform="matrix(0.866 0.5 -0.5 0.866 363.8528 36.481)" fill="#FFECBA" cx="113.859" cy="697.129" rx="3.738" ry="3.76"/>
		</g>
		<g>
			
				<ellipse transform="matrix(0.866 0.5 -0.5 0.866 370.9682 29.366)" fill="#FFECBA" cx="130.692" cy="706.848" rx="3.738" ry="3.76"/>
		</g>
		<g>
			
				<ellipse transform="matrix(0.866 0.5 -0.5 0.866 378.0837 22.251)" fill="#FFECBA" cx="147.525" cy="716.566" rx="3.738" ry="3.76"/>
		</g>
		<g>
			
				<ellipse transform="matrix(0.866 0.5 -0.5 0.866 385.1991 15.1361)" fill="#FFECBA" cx="164.358" cy="726.285" rx="3.738" ry="3.759"/>
		</g>
		<g>
			
				<ellipse transform="matrix(0.866 0.5 -0.5 0.866 392.3145 8.0211)" fill="#FFECBA" cx="181.191" cy="736.004" rx="3.738" ry="3.759"/>
		</g>
		<g>
			
				<ellipse transform="matrix(0.866 0.5 -0.5 0.866 399.43 0.9062)" fill="#FFECBA" cx="198.024" cy="745.723" rx="3.738" ry="3.759"/>
		</g>
		<g>
			
				<ellipse transform="matrix(0.8661 0.4998 -0.4998 0.8661 406.3478 -6.2586)" fill="#FFECBA" cx="214.857" cy="755.44" rx="3.738" ry="3.76"/>
		</g>
		<g>
			
				<ellipse transform="matrix(0.8661 0.4998 -0.4998 0.8661 413.4589 -13.371)" fill="#FFECBA" cx="231.69" cy="765.159" rx="3.738" ry="3.76"/>
		</g>
		<g>
			
				<ellipse transform="matrix(0.866 0.5 -0.5 0.866 420.7494 -20.4446)" fill="#FFECBA" cx="248.523" cy="774.877" rx="3.738" ry="3.761"/>
		</g>
		<g>
			
				<ellipse transform="matrix(0.866 0.5 -0.5 0.866 427.8643 -27.5592)" fill="#FFECBA" cx="265.356" cy="784.596" rx="3.738" ry="3.76"/>
		</g>
		<g>
			
				<ellipse transform="matrix(0.866 0.5 -0.5 0.866 434.9792 -34.6739)" fill="#FFECBA" cx="282.189" cy="794.314" rx="3.738" ry="3.76"/>
		</g>
		<g>
			
				<ellipse transform="matrix(0.866 0.5 -0.5 0.866 442.0941 -41.7885)" fill="#FFECBA" cx="299.022" cy="804.033" rx="3.738" ry="3.76"/>
		</g>
		<g>
			
				<ellipse transform="matrix(0.866 0.5 -0.5 0.866 449.2372 -48.8989)" fill="#FFECBA" cx="315.856" cy="813.752" rx="3.738" ry="3.76"/>
		</g>
		<g>
			
				<ellipse transform="matrix(0.866 0.5 -0.5 0.866 456.3526 -56.0139)" fill="#FFECBA" cx="332.689" cy="823.471" rx="3.738" ry="3.76"/>
		</g>
		<g>
			
				<ellipse transform="matrix(0.866 0.5 -0.5 0.866 463.468 -63.1287)" fill="#FFECBA" cx="349.522" cy="833.189" rx="3.738" ry="3.76"/>
		</g>
		<g>
			
				<ellipse transform="matrix(0.866 0.5 -0.5 0.866 470.5835 -70.2437)" fill="#FFECBA" cx="366.355" cy="842.908" rx="3.738" ry="3.76"/>
		</g>
		<g>
			
				<ellipse transform="matrix(0.8661 0.4998 -0.4998 0.8661 477.488 -77.3801)" fill="#FFECBA" cx="383.188" cy="852.626" rx="3.737" ry="3.761"/>
		</g>
		<g>
			
				<ellipse transform="matrix(0.8661 0.4998 -0.4998 0.8661 484.5996 -84.4929)" fill="#FFECBA" cx="400.021" cy="862.345" rx="3.737" ry="3.761"/>
		</g>
		<g>
			
				<ellipse transform="matrix(0.866 0.5 -0.5 0.866 491.9288 -91.5887)" fill="#FFECBA" cx="416.854" cy="872.063" rx="3.738" ry="3.761"/>
		</g>
		<g>
			
				<ellipse transform="matrix(0.866 0.5 -0.5 0.866 499.0443 -98.7037)" fill="#FFECBA" cx="433.687" cy="881.781" rx="3.738" ry="3.76"/>
		</g>
		<g>
			
				<ellipse transform="matrix(0.866 0.5 -0.5 0.866 506.1597 -105.8187)" fill="#FFECBA" cx="450.52" cy="891.5" rx="3.738" ry="3.76"/>
		</g>
		<g>
			
				<ellipse transform="matrix(0.866 0.5 -0.5 0.866 513.2751 -112.9336)" fill="#FFECBA" cx="467.353" cy="901.219" rx="3.738" ry="3.76"/>
		</g>
		<g>
			
				<ellipse transform="matrix(0.866 0.5 -0.5 0.866 520.3906 -120.0486)" fill="#FFECBA" cx="484.186" cy="910.938" rx="3.738" ry="3.76"/>
		</g>
		<g>
			
				<ellipse transform="matrix(0.866 0.5 -0.5 0.866 527.4718 -127.1646)" fill="#FFECBA" cx="501.019" cy="920.656" rx="3.738" ry="3.76"/>
		</g>
	</g>
	<g>
		<path fill="#FFECB8" d="M826.147,1179.092c-0.346,0-0.689-0.088-1-0.268l-257.473-148.65c-0.957-0.553-1.284-1.775-0.732-2.732
			c0.551-0.957,1.775-1.285,2.732-0.732l256.473,148.074l268.535-155.039c0.957-0.553,2.182-0.225,2.732,0.732
			c0.553,0.957,0.225,2.18-0.732,2.732l-269.535,155.615C826.838,1179.004,826.493,1179.092,826.147,1179.092z"/>
	</g>
	<g>
		<radialGradient id="SVGID_7_" cx="961.5532" cy="305.0356" r="225.337" gradientUnits="userSpaceOnUse">
			<stop  offset="0.0699" style="stop-color:#FFECB8"/>
			<stop  offset="0.4219" style="stop-color:#FDE8B4"/>
			<stop  offset="0.5848" style="stop-color:#F5DDAA"/>
			<stop  offset="0.7087" style="stop-color:#EACD9B"/>
			<stop  offset="0.813" style="stop-color:#DAB887"/>
			<stop  offset="0.9039" style="stop-color:#C69E70"/>
			<stop  offset="0.9839" style="stop-color:#AE8056"/>
		</radialGradient>
		<circle fill="url(#SVGID_7_)" cx="996.706" cy="312.208" r="181.344"/>
		<radialGradient id="SVGID_8_" cx="922.0728" cy="308.9351" r="286.9809" gradientUnits="userSpaceOnUse">
			<stop  offset="0.0484" style="stop-color:#6D4765"/>
			<stop  offset="0.1408" style="stop-color:#603E59"/>
			<stop  offset="0.3169" style="stop-color:#4B2D45"/>
			<stop  offset="0.4532" style="stop-color:#3E2238"/>
			<stop  offset="0.5323" style="stop-color:#381D33"/>
			<stop  offset="0.7137" style="stop-color:#371C32"/>
			<stop  offset="0.7976" style="stop-color:#341A30"/>
			<stop  offset="0.8615" style="stop-color:#2F172B"/>
			<stop  offset="0.9153" style="stop-color:#271224"/>
			<stop  offset="0.9621" style="stop-color:#1C0C1B"/>
			<stop  offset="1" style="stop-color:#0F0410"/>
		</radialGradient>
		<path fill="url(#SVGID_8_)" d="M943.396,142.907c0.751-0.422,1.502-0.834,2.256-1.237c1.021-1.19,2.743-3.199,6.673-5.332
			c-29.574,7.439-56.264,22.143-78.06,42.103c-2.935,4.362-5.354,9.701-5.655,16.922c5.966-3.968,17.071-11.354,37.98-21.977
			C917.588,160.695,929.932,150.468,943.396,142.907z M901.62,445.279c-13.651-7.301-25.336-13.995-37.984-22.931
			c-0.031,4.867,0.346,10.535,4.459,17.702c22.179,22.312,50.123,38.885,81.414,47.296c-4.484-3.149-10.021-7.858-10.021-7.858
			S912.793,459.474,901.62,445.279z M840.951,248.215c-5.638,5.469-16.095,15.622-22.224,29.052
			c-1.605,8.228-2.655,16.655-3.108,25.241c-0.01,0.199-0.022,0.398-0.031,0.598c-0.021,0.425-0.038,0.851-0.058,1.276
			c-0.016,0.39-0.032,0.78-0.047,1.171c-0.008,0.239-0.016,0.478-0.022,0.717c-0.016,0.537-0.033,1.074-0.046,1.611
			c-0.003,0.103-0.004,0.206-0.007,0.308c-0.013,0.644-0.026,1.287-0.033,1.931c0,0.078,0,0.157-0.001,0.234
			c-0.006,0.646-0.012,1.292-0.012,1.938c0,0.101,0.003,0.201,0.003,0.301c0,0.799,0.009,1.597,0.02,2.395
			c0.009,0.553,0.019,1.105,0.032,1.658c0.004,0.178,0.01,0.358,0.014,0.536c0.197,7.343,0.834,14.576,1.88,21.677
			c2.354,5.408,6.774,15.265,21.062,29.384c2.462-5.229,7.043-14.959,21.842-29.657c-0.926-8.634-1.391-17.392-1.391-26.245
			c0-11.796,0.825-23.425,2.469-34.814C855.985,271.921,846.108,261.483,840.951,248.215z M1152.334,240.766
			c0.931,2.401,1.813,4.819,2.644,7.251c4.617,4.59,12.552,12.481,18.336,22.845c-8.25-35.377-26.856-66.774-52.448-90.824
			c3.346,6.792,6.277,15.332,6.277,15.332S1145.96,224.293,1152.334,240.766z M905.739,240.766c-0.549,2.401-1.07,4.819-1.562,7.251
			c6.262,4.986,17.913,14.269,42.325,29.305c8.158-4.676,8.158-4.676,52.776-29.305c-0.012-2.432-0.021-4.85-0.034-7.251
			c-0.08-16.472-0.186-31.682-0.317-45.396c-9.527-5.244-22.577-12.425-35.517-21.978c-12.865,6.469-27.843,14.036-42.796,21.978
			C914.491,209.084,909.502,224.293,905.739,240.766z M1138.047,312.343c0-11.796-0.84-23.425-2.51-34.814
			c-6.863-5.415-18.349-14.479-42.322-29.314c-6.133,4.988-17.55,14.274-41.594,29.314c0.656,11.389,0.986,23.018,0.986,34.814
			c0,8.853-0.186,17.611-0.556,26.245c9.379,5.877,26.837,16.818,42.746,29.657c9.071-5.76,25.959-16.48,41.835-29.657
			C1137.575,329.954,1138.047,321.196,1138.047,312.343z M902.603,368.253c0.913,5.289,1.958,10.514,3.136,15.665
			c3.136,13.72,7.119,26.563,11.901,38.396c11.037,5.96,18.966,10.167,43.909,22.941c10.936-7.84,20.035-13.415,37.442-22.941
			c0.101-11.832,0.186-24.676,0.253-38.396c0.025-5.151,0.049-10.376,0.066-15.665c-27.358-14.958-37.595-20.555-53.222-29.657
			C936.569,344.473,918.847,355.413,902.603,368.253z M1157.647,368.253c-1.546,5.289-3.317,10.514-5.313,15.665
			c-5.309,13.72-12.054,26.563-20.152,38.396c-0.11,3.912-0.506,8.343-2.932,13.657c23.18-24.814,39.472-56.145,45.834-90.945
			C1172.256,350.664,1167.335,358.428,1157.647,368.253z M1035.512,445.279c-4.462,14.195-9.539,25.677-15.125,34.209
			c1.96,2.083,3.638,10.4,3.638,10.4s18.26-5.432,32.03-10.4c14.215-8.532,27.133-20.014,38.49-34.209
			c-1.751-5.395-4.519-12.06-15.246-22.931C1068.935,427.969,1060.817,432.317,1035.512,445.279z M1076.247,195.363
			c5.338-5.825,11.203-12.807,13.248-21.977c-11.182-12.691-23.727-22.918-37.412-30.479c-0.764-0.422-1.527-0.834-2.295-1.237
			c-5.426-2.267-18.678-7.141-30.537-8.981c0.251,2.019-1.327,8.981-1.327,8.981s0.603,0.815,0.901,1.237
			c5.379,7.562,10.309,17.789,14.703,30.479C1046.229,179.771,1061.052,187.261,1076.247,195.363z"/>
	</g>
</g>
</svg>
